# xmcd
#
# Track frame offsets: 
#        150
#        19585
#        39985
#        56577
#        71780
#        94800
#        116645
#        137942
#        157410
#        180510
#        202857
#        224150
#
# Disc length: 3246 seconds
#
# Revision: 0
# Processed by: cddbd v1.5.2PL0 Copyright (c) Steve Scherf et al.
# Submitted via: ExactAudioCopyFreeDBPlugin 1.0
#
DISCID=b40cac0c
DTITLE=龍神総宮社祭主　辻本源治郎 - 我が人生に悔なきや
DYEAR=1900
DGENRE=JPop
TTITLE0=男しぐれ
TTITLE1=破れ太鼓
TTITLE2=男の道
TTITLE3=せつない船
TTITLE4=男の残花
TTITLE5=淀川しぐれ
TTITLE6=男の残月
TTITLE7=ごめんね
TTITLE8=男の残花（カラオケ）
TTITLE9=淀川しぐれ（カラオケ）
TTITLE10=男の残月（カラオケ）
TTITLE11=ごめんね（カラオケ）
EXTD=
EXTT0=
EXTT1=
EXTT2=
EXTT3=
EXTT4=
EXTT5=
EXTT6=
EXTT7=
EXTT8=
EXTT9=
EXTT10=
EXTT11=
PLAYORDER=
